<svg xmlns="http://www.w3.org/2000/svg" viewBox="0 0 280 50">
  <defs>
    <linearGradient id="cryptoGrad" x1="0%" y1="0%" x2="100%" y2="100%">
      <stop offset="0%" style="stop-color:#00D4AA;stop-opacity:1" />
      <stop offset="50%" style="stop-color:#7B68EE;stop-opacity:1" />
      <stop offset="100%" style="stop-color:#4285F4;stop-opacity:1" />
    </linearGradient>
    <linearGradient id="chartGrad" x1="0%" y1="100%" x2="0%" y2="0%">
      <stop offset="0%" style="stop-color:#00D4AA;stop-opacity:1" />
      <stop offset="100%" style="stop-color:#00FF88;stop-opacity:1" />
    </linearGradient>
  </defs>
  
  <!-- Trading Chart Icon -->
  <g transform="translate(5, 8)">
    <!-- Chart bars -->
    <rect x="0" y="24" width="6" height="10" fill="url(#chartGrad)" rx="1"/>
    <rect x="9" y="18" width="6" height="16" fill="url(#chartGrad)" rx="1"/>
    <rect x="18" y="10" width="6" height="24" fill="url(#chartGrad)" rx="1"/>
    <rect x="27" y="4" width="6" height="30" fill="url(#chartGrad)" rx="1"/>
    
    <!-- Trend line -->
    <path d="M3 28 L12 22 L21 14 L30 6" stroke="#00FF88" stroke-width="2" fill="none" stroke-linecap="round"/>
    <circle cx="30" cy="6" r="3" fill="#00FF88"/>
  </g>
  
  <!-- Text: StratFlow -->
  <text x="48" y="33" font-family="Arial, sans-serif" font-size="24" font-weight="bold" fill="url(#cryptoGrad)">
    Strat<tspan fill="#FFFFFF">Flow</tspan>
  </text>
  
  <!-- AI Badge -->
  <g transform="translate(168, 15)">
    <rect x="0" y="0" width="24" height="16" rx="3" fill="#4285F4" opacity="0.9"/>
    <text x="12" y="12" font-family="Arial, sans-serif" font-size="9" font-weight="bold" fill="white" text-anchor="middle">AI</text>
  </g>
  
  <!-- On-Chain Badge -->
  <g transform="translate(196, 15)">
    <rect x="0" y="0" width="58" height="16" rx="3" fill="#7B68EE" opacity="0.9"/>
    <text x="29" y="12" font-family="Arial, sans-serif" font-size="8" font-weight="bold" fill="white" text-anchor="middle">ON-CHAIN</text>
  </g>
</svg>
